<svg version="1.1" xmlns="http://www.w3.org/2000/svg" xmlns:xlink="http://www.w3.org/1999/xlink" x="0px" y="0px"
	 viewBox="0 0 21 20" width="25" enable-background="new 0 0 21 20" xml:space="preserve">
<g>
	<defs>
		<rect id="SVGID_1_" x="0.4" width="20.3" height="20"/>
	</defs>
	<clipPath id="SVGID_2_">
		<use xlink:href="#SVGID_1_"  overflow="visible"/>
	</clipPath>
	<g clip-path="url(#SVGID_2_)">
		
			<linearGradient id="SVGID_3_" gradientUnits="userSpaceOnUse" x1="10.392" y1="21.2031" x2="10.392" y2="2.8507" gradientTransform="matrix(1 0 0 -1 0 22)">
			<stop  offset="0" style="stop-color:#8359A2"/>
			<stop  offset="1" style="stop-color:#794E9B"/>
		</linearGradient>
		<path fill="url(#SVGID_3_)" d="M1.6,9.8c0,1.7,0.5,3.4,1.4,4.7c-0.1,1-1.7,4.6-1.7,4.6s3.4-1.1,4.9-1.5c1.3,0.7,2.8,1.2,4.5,1.2
			c5,0,9-4,9-9c0-5-4-9-9-9C5.6,0.8,1.6,4.8,1.6,9.8z"/>
		<path fill="#FFFFFF" d="M5.6,7.6c0-0.5,0.2-1.1,0.5-1.7c0.2-0.3,0.4-0.6,0.7-0.8C7,5,7.1,4.9,7.3,4.8c0.2-0.1,0.3-0.2,0.6-0.2
			c0.2,0,0.3,0.1,0.4,0.2C8.4,4.9,8.6,5,8.7,5.2c0.2,0.4,0.5,0.7,0.7,1.1c0.1,0.2,0.1,0.4,0.2,0.6c0.1,0.4-0.1,0.7-0.3,0.9
			C9,7.9,8.9,8,8.8,8.1C8.7,8.2,8.6,8.2,8.5,8.3C8.3,8.4,8.2,8.6,8.2,8.8c0,0.1,0,0.3,0,0.5c0.1,0.3,0.2,0.6,0.4,0.8
			c0.3,0.4,0.6,0.8,0.9,1.2c0.3,0.3,0.6,0.6,0.9,0.8c0.2,0.1,0.4,0.2,0.6,0.3c0.3,0.1,0.5,0,0.7-0.2c0,0,0.1-0.1,0.1-0.1
			c0.2-0.2,0.4-0.4,0.6-0.5c0.3-0.3,0.7-0.3,1.1-0.1c0.3,0.1,0.5,0.3,0.7,0.4c0.3,0.2,0.5,0.4,0.8,0.7c0.1,0.1,0.2,0.2,0.3,0.4
			c0.2,0.3,0.2,0.6-0.1,0.9c-0.2,0.2-0.5,0.4-0.7,0.6C14,14.7,13.5,14.9,13,15c-0.6,0.1-1.3,0-1.9-0.2c-0.6-0.2-1.1-0.5-1.6-0.9
			c-0.6-0.5-1.2-1.1-1.8-1.7c-0.4-0.4-0.7-0.8-1-1.3c-0.4-0.5-0.6-1.1-0.9-1.7C5.7,8.7,5.6,8.2,5.6,7.6z"/>
	</g>
</g>
</svg>
